<?xml version="1.0" standalone="no"?>
<!DOCTYPE svg PUBLIC "-//W3C//DTD SVG 20010904//EN"
 "http://www.w3.org/TR/2001/REC-SVG-20010904/DTD/svg10.dtd">
<svg version="1.0" xmlns="http://www.w3.org/2000/svg"
 width="320.000000pt" height="184.000000pt" viewBox="0 0 320.000000 184.000000"
 preserveAspectRatio="xMidYMid meet">
<metadata>
Created by potrace 1.16, written by Peter Selinger 2001-2019
</metadata>
<g transform="translate(0.000000,184.000000) scale(0.100000,-0.100000)"
fill="#000000" stroke="none">
<path d="M0 920 l0 -920 1600 0 1600 0 0 920 0 920 -1600 0 -1600 0 0 -920z
m567 509 c59 -45 113 -83 119 -86 7 -2 15 -19 19 -36 7 -30 8 -31 14 -8 6 22
7 22 20 7 14 -16 23 -55 37 -158 4 -31 11 -45 19 -42 7 3 17 -8 23 -25 6 -17
12 -31 14 -31 2 0 3 33 2 73 -1 84 10 111 38 94 10 -7 18 -24 18 -39 0 -22 5
-28 21 -28 18 0 21 5 17 31 -4 28 -2 30 18 26 13 -2 21 0 18 4 -3 5 0 9 7 9
13 0 89 -78 89 -91 0 -4 12 -10 27 -14 19 -4 23 -9 14 -14 -9 -6 -10 -11 -2
-15 6 -4 11 -11 11 -17 0 -18 -38 -8 -78 21 -49 35 -52 36 -52 12 0 -24 34
-55 85 -78 l40 -19 -59 -3 c-54 -3 -58 -4 -52 -25 3 -12 6 -28 6 -35 0 -9 16
-13 53 -12 28 1 93 -2 142 -5 68 -4 86 -3 72 5 -43 27 -70 158 -43 211 9 17
16 44 16 58 0 19 3 22 9 12 7 -10 17 -2 42 37 20 30 41 50 51 49 9 -1 14 -5
12 -9 -3 -5 -9 -6 -13 -4 -4 3 -12 -9 -18 -25 -10 -26 -10 -29 3 -18 12 10 13
9 8 -5 -5 -13 1 -16 37 -16 44 0 102 -26 126 -57 10 -13 11 -3 6 50 l-6 65 45
0 c31 -1 66 9 119 34 41 20 84 39 97 43 12 3 22 10 22 14 0 5 28 11 63 15 34
3 68 7 75 8 6 1 12 7 12 15 0 20 116 17 165 -6 43 -19 85 -58 49 -44 -13 4 -6
-8 19 -35 37 -42 39 -52 22 -109 -5 -14 52 -7 72 10 7 5 30 6 50 3 21 -3 46
-6 55 -7 20 0 58 -44 58 -67 0 -13 4 -12 23 4 12 11 31 19 42 18 11 -1 30 -2
42 -3 12 0 24 -9 28 -19 3 -11 17 -24 30 -30 24 -11 25 -10 25 18 0 17 -5 30
-11 30 -11 0 -76 44 -119 81 -17 14 -19 19 -7 15 23 -7 22 -5 -13 39 -16 20
-27 42 -23 48 4 6 17 -3 32 -23 44 -56 105 -119 121 -122 8 -2 18 -7 22 -12 6
-9 3 43 -8 106 -4 24 -12 38 -25 41 -10 3 -19 11 -19 18 0 10 3 10 12 1 18
-18 28 -15 28 9 0 15 5 19 15 15 11 -4 15 2 15 27 0 18 7 42 16 53 15 18 15
18 9 -3 -7 -25 4 -30 23 -11 9 9 12 2 13 -32 l1 -45 10 33 c6 17 14 32 18 32
13 0 20 -46 14 -92 -6 -39 -4 -45 19 -57 22 -12 29 -11 54 6 68 48 170 92 226
98 24 2 22 -4 -20 -48 -24 -25 -30 -35 -17 -29 12 6 36 14 55 17 33 5 32 4
-18 -27 -28 -18 -84 -50 -124 -71 l-71 -39 5 -41 c20 -150 57 -267 85 -267 13
0 14 -2 4 -8 -10 -7 -6 -24 18 -76 16 -37 30 -75 30 -83 0 -8 11 -38 25 -65
14 -28 24 -53 21 -55 -7 -7 -88 136 -116 207 l-27 65 -95 3 c-95 3 -95 2 -91
-20 2 -13 0 -41 -5 -63 l-8 -40 -14 65 c-11 52 -15 59 -18 35 l-4 -30 -14 33
c-13 33 -14 33 -73 31 -58 -2 -59 -3 -50 -26 14 -36 10 -42 -7 -10 -16 29 -21
32 -43 18 -9 -6 -19 -4 -28 4 -7 8 -23 11 -36 8 -12 -3 -53 -6 -91 -7 -67 -1
-69 -2 -102 -41 -18 -22 -34 -43 -34 -47 0 -5 -15 -7 -32 -7 -24 1 -27 3 -10
6 12 2 20 9 17 14 -4 5 -1 9 4 9 6 0 11 9 11 20 0 15 7 20 25 20 15 0 25 6 25
14 0 8 6 17 13 20 6 3 -25 5 -70 4 l-83 -1 6 -26 c3 -14 12 -48 20 -75 15 -55
18 -90 6 -82 -4 2 -27 43 -52 91 l-44 86 -46 -3 -45 -3 -5 -58 c-3 -31 -9 -57
-15 -57 -5 0 -12 -21 -15 -47 l-5 -48 -13 53 c-6 29 -12 76 -12 103 l0 50 -47
-3 c-47 -3 -48 -4 -45 -33 1 -16 -1 -25 -5 -20 -31 39 -47 44 -108 31 l-60
-12 2 -60 c2 -46 0 -52 -6 -29 -19 69 -30 87 -51 80 -36 -11 -119 -22 -115
-15 10 16 -40 20 -52 4 -12 -16 -26 -5 -15 12 4 6 37 24 75 42 37 17 67 34 67
37 0 10 -54 -6 -102 -31 -46 -24 -62 -22 -36 4 14 14 13 14 -67 12 -57 -1
-275 -27 -281 -33 -2 -1 2 -22 7 -47 5 -24 8 -53 7 -64 -3 -16 -9 -9 -26 28
-12 27 -22 55 -22 62 0 20 -37 17 -44 -3 -5 -13 -9 -14 -15 -5 -5 9 -19 10
-47 4 -34 -7 -39 -11 -36 -33 l2 -24 -15 21 c-15 21 -19 21 -68 9 -29 -7 -124
-30 -212 -50 -102 -24 -171 -46 -190 -60 -16 -12 -41 -28 -55 -35 -24 -13 -24
-12 -10 5 14 17 13 17 -5 8 -11 -6 -47 -18 -79 -27 l-60 -15 70 70 c38 39 104
94 147 123 l78 53 -53 9 c-29 4 -68 8 -86 8 -37 1 -68 30 -78 75 -4 14 -18 41
-31 59 -13 17 -22 36 -19 41 4 5 2 19 -2 32 -12 30 2 97 33 164 14 31 25 62
25 69 0 20 37 49 55 42 20 -7 29 -32 19 -53 -4 -10 -7 -21 -6 -25 1 -4 -8 -10
-19 -13 -45 -14 -99 -199 -63 -212 8 -3 13 21 16 72 3 64 7 78 28 99 41 39
162 116 211 133 l46 17 -58 49 c-55 47 -69 74 -31 60 9 -3 14 -3 10 1 -6 7
-27 13 -53 15 -5 1 -4 5 4 10 22 14 71 -12 188 -100z"/>
<path d="M1745 1305 c-96 -16 -187 -49 -174 -62 5 -5 13 -45 18 -89 5 -43 9
-72 10 -63 0 9 7 19 14 22 8 3 20 26 27 52 7 26 23 53 35 61 58 38 78 -34 30
-106 l-24 -35 23 -85 23 -85 61 -3 61 -3 1 206 c0 188 -2 205 -18 204 -9 -1
-48 -7 -87 -14z"/>
<path d="M457 1263 c-15 -2 -43 -20 -62 -40 -30 -31 -35 -43 -35 -83 0 -63 43
-123 106 -151 48 -20 79 -26 54 -9 -11 7 -7 8 15 4 25 -5 37 1 74 35 l44 40
-5 68 c-3 38 -14 85 -24 106 l-18 37 -60 -1 c-34 -1 -73 -4 -89 -6z"/>
<path d="M1371 1154 c-19 -8 -45 -25 -59 -39 -22 -22 -23 -28 -13 -57 12 -33
38 -68 52 -68 5 0 17 17 28 38 15 27 20 32 21 17 0 -11 -7 -31 -16 -43 -20
-29 -2 -28 33 2 22 19 28 32 27 65 -1 34 1 39 12 30 22 -18 17 14 -7 45 -23
30 -31 31 -78 10z"/>
<path d="M2242 1147 c-12 -7 -20 -16 -16 -19 3 -4 -4 -20 -16 -36 -17 -23 -21
-38 -16 -59 11 -44 34 -73 59 -73 15 0 18 3 9 9 -9 5 -2 15 28 34 22 15 39 31
38 35 0 4 2 14 6 24 10 23 -30 98 -52 98 -9 -1 -27 -6 -40 -13z"/>
<path d="M2515 1118 c-11 -6 -23 -16 -27 -22 -12 -18 -9 -76 4 -76 6 0 8 -3 5
-6 -4 -4 -13 -1 -22 6 -12 10 -15 10 -15 -3 0 -23 26 -39 52 -32 21 7 22 6 5
-7 -17 -13 -16 -14 9 -13 26 2 58 31 49 45 -2 4 7 18 20 30 14 13 25 28 25 33
0 11 -39 47 -51 47 -4 0 -13 2 -21 5 -7 2 -22 -1 -33 -7z"/>
<path d="M2744 1117 c3 -10 13 -43 22 -73 9 -31 14 -58 11 -60 -5 -5 -47 99
-47 116 0 6 -4 10 -10 10 -10 0 -11 -7 -14 -130 l-1 -75 79 -8 c43 -4 81 -6
83 -3 2 2 -3 19 -12 37 -9 21 -14 25 -11 12 7 -40 -4 -25 -35 45 -41 90 -71
151 -65 129z"/>
</g>
</svg>
